HIERARCHY
ROOT Hips
{
	OFFSET -0.001795 -0.223333 0.028219
	CHANNELS 6 Xposition Yposition Zposition Zrotation Yrotation Xrotation 
	JOINT LeftUpLeg
	{
		OFFSET 0.069520 -0.091406 -0.006815
		CHANNELS 3 Zrotation Yrotation Xrotation
		JOINT LeftLeg
		{
			OFFSET 0.034277 -0.375199 -0.004496
			CHANNELS 3 Zrotation Yrotation Xrotation
			JOINT LeftFoot
			{
				OFFSET -0.013596 -0.397961 -0.043693
				CHANNELS 3 Zrotation Yrotation Xrotation
				JOINT LeftToe
				{
					OFFSET 0.026358 -0.055791 0.119288
					CHANNELS 3 Zrotation Yrotation Xrotation
					End Site
					{
						OFFSET 0.000000 0.000000 0.000000
					}
				}
			}
		}
	}
	JOINT RightUpLeg
	{
		OFFSET -0.067670 -0.090522 -0.004320
		CHANNELS 3 Zrotation Yrotation Xrotation
		JOINT RightLeg
		{
			OFFSET -0.038290 -0.382569 -0.008850
			CHANNELS 3 Zrotation Yrotation Xrotation
			JOINT RightFoot
			{
				OFFSET 0.015774 -0.398415 -0.042312
				CHANNELS 3 Zrotation Yrotation Xrotation
				JOINT RightToe
				{
					OFFSET -0.025372 -0.048144 0.123348
					CHANNELS 3 Zrotation Yrotation Xrotation
					End Site
					{
						OFFSET 0.000000 0.000000 0.000000
					}
				}
			}
		}
	}
	JOINT Spine
	{
		OFFSET -0.002533 0.108963 -0.026696
		CHANNELS 3 Zrotation Yrotation Xrotation
		JOINT Spine1
		{
			OFFSET 0.005487 0.135180 0.001092
			CHANNELS 3 Zrotation Yrotation Xrotation
			JOINT Spine2
			{
				OFFSET 0.001457 0.052922 0.025425
				CHANNELS 3 Zrotation Yrotation Xrotation
				JOINT Neck
				{
					OFFSET -0.002778 0.213870 -0.042857
					CHANNELS 3 Zrotation Yrotation Xrotation
					JOINT Head
					{
						OFFSET 0.005152 0.064970 0.051349
						CHANNELS 3 Zrotation Yrotation Xrotation
						End Site
						{
							OFFSET 0.000000 0.000000 0.000000
						}
					}
				}
				JOINT LeftShoulder
				{
					OFFSET 0.078845 0.121749 -0.034090
					CHANNELS 3 Zrotation Yrotation Xrotation
					JOINT LeftArm
					{
						OFFSET 0.090977 0.030469 -0.008868
						CHANNELS 3 Zrotation Yrotation Xrotation
						JOINT LeftForeArm
						{
							OFFSET 0.259612 -0.012772 -0.027456
							CHANNELS 3 Zrotation Yrotation Xrotation
							JOINT LeftHand
							{
								OFFSET 0.249234 0.008986 -0.001171
								CHANNELS 3 Zrotation Yrotation Xrotation
								End Site
								{
									OFFSET 0.000000 0.000000 0.000000
								}
							}
						}
					}
				}
				JOINT RightShoulder
				{
					OFFSET -0.081759 0.118833 -0.038615
					CHANNELS 3 Zrotation Yrotation Xrotation
					JOINT RightArm
					{
						OFFSET -0.096012 0.032551 -0.009143
						CHANNELS 3 Zrotation Yrotation Xrotation
						JOINT RightForeArm
						{
							OFFSET -0.253742 -0.013329 -0.021401
							CHANNELS 3 Zrotation Yrotation Xrotation
							JOINT RightHand
							{
								OFFSET -0.255298 0.007772 -0.005559
								CHANNELS 3 Zrotation Yrotation Xrotation
								End Site
								{
									OFFSET 0.000000 0.000000 0.000000
								}
							}
						}
					}
				}
			}
		}
	}
}
MOTION
Frames: 10
Frame Time: 0.050000
0.000000 0.550702 0.000000 -2.558642 -18.154407 -5.704920 42.636117 10.779710 -17.456740 -10.490125 13.490723 75.325915 10.943774 16.529109 -65.331227 0.000000 0.000000 0.000000 -44.521843 -3.824756 -37.605992 38.574287 -20.224678 62.452075 -7.368179 -26.215287 -45.629289 0.000000 0.000000 0.000000 5.858683 -1.205678 23.193028 -3.541496 1.184749 -31.422509 -1.791044 13.146528 23.594999 13.750699 -6.771544 -23.247315 0.000000 0.000000 0.000000 -12.493333 -19.644996 8.097287 -43.716163 -37.011355 6.131483 139.990957 -36.632624 -75.521555 0.000000 0.000000 0.000000 11.025622 19.813859 8.571068 68.404325 52.444119 26.379609 172.485704 65.518491 -178.813773 0.000000 0.000000 0.000000 
-0.000907 0.556266 0.000392 -2.806275 -18.586153 -7.401083 40.350988 10.527746 -18.611254 -5.740148 9.399914 78.684676 10.667417 16.726790 -61.124314 0.000000 0.000000 0.000000 -45.056593 -4.421976 -39.908997 38.662442 -21.791519 66.161902 -7.965952 -25.511347 -34.280985 0.000000 0.000000 0.000000 7.322527 -1.465988 25.114189 -6.995366 1.892057 -34.093043 0.195910 9.609159 25.809424 14.572636 -8.605157 -21.050938 0.000000 0.000000 0.000000 -12.832008 -20.663088 9.264261 -41.591352 -41.596957 7.263330 136.837497 -37.083158 -69.798975 0.000000 0.000000 0.000000 11.685837 23.321787 9.592246 64.277090 51.501772 22.723025 179.072757 62.717626 -169.942088 0.000000 0.000000 0.000000 
-0.001489 0.557827 0.001168 -1.836819 -17.073125 -9.040253 40.086538 10.385174 -19.542529 -6.436102 9.546007 79.939572 10.680383 15.280026 -58.570460 0.000000 0.000000 0.000000 -43.276507 -4.528413 -39.454426 33.274338 -19.313571 71.401273 -8.100562 -25.151446 -33.914583 0.000000 0.000000 0.000000 7.570313 -1.526067 24.414294 -3.962317 1.138037 -29.377176 -3.044542 8.928230 21.682931 12.857314 -8.939164 -13.637052 0.000000 0.000000 0.000000 -17.601052 -21.137947 10.081803 -35.970098 -40.436529 5.603968 135.683298 -37.346374 -70.471673 0.000000 0.000000 0.000000 14.858791 25.606117 11.289820 59.339582 54.658758 22.734511 -170.829634 70.848726 -158.026902 0.000000 0.000000 0.000000 
-0.001661 0.559709 0.001799 -1.387845 -17.424264 -9.776926 40.365332 10.710166 -19.833815 -6.664617 9.938219 81.062797 10.625267 14.546358 -55.573444 0.000000 0.000000 0.000000 -41.513036 -4.333981 -40.739318 30.027896 -17.327592 74.894546 -8.233419 -24.821141 -31.757714 0.000000 0.000000 0.000000 8.439611 -1.642264 24.609222 -6.027064 1.644946 -29.872242 -1.047220 7.438064 22.730469 9.207121 -6.551611 -12.419429 0.000000 0.000000 0.000000 -17.329729 -20.883518 10.309090 -35.271272 -40.472869 5.381029 130.811298 -34.968175 -60.212490 0.000000 0.000000 0.000000 11.306889 26.462110 10.592818 60.582394 56.988627 24.683176 -149.512413 74.082591 -132.668200 0.000000 0.000000 0.000000 
-0.001709 0.559405 0.003095 -0.371678 -16.520913 -10.785854 40.582980 10.780333 -20.409008 -8.008909 11.008581 81.949775 10.571676 13.268696 -53.233250 0.000000 0.000000 0.000000 -42.164818 -4.811149 -40.798763 28.278868 -16.681977 77.256721 -8.297403 -24.031688 -29.210577 0.000000 0.000000 0.000000 8.002853 -1.584437 24.699567 -5.335758 1.483756 -27.039072 -1.289334 7.577356 20.864313 8.805389 -6.329856 -10.861312 0.000000 0.000000 0.000000 -16.867852 -21.027212 10.011188 -33.636441 -38.110926 4.523039 131.107213 -36.152037 -63.585779 0.000000 0.000000 0.000000 11.857987 28.503034 11.712085 54.725385 59.542610 23.418769 -110.828484 73.377098 -88.154433 0.000000 0.000000 0.000000 
-0.001502 0.557682 0.004025 0.157573 -15.929933 -11.563004 41.281622 11.438259 -21.887427 -8.721779 11.570530 84.076691 10.318399 11.462638 -48.963090 0.000000 0.000000 0.000000 -42.019172 -4.968115 -40.513771 26.634681 -15.628721 79.001598 -8.293202 -23.614204 -29.000624 0.000000 0.000000 0.000000 7.344694 -1.492393 25.332842 -4.008243 1.198202 -28.300943 -0.213513 9.166344 22.412319 7.557430 -4.632551 -13.887417 0.000000 0.000000 0.000000 -15.853145 -20.681860 9.326653 -34.185009 -37.805748 4.458507 132.785906 -36.411197 -66.593708 0.000000 0.000000 0.000000 10.147192 30.115830 12.243291 48.210474 61.177451 20.863466 -83.944746 66.204911 -55.042322 0.000000 0.000000 0.000000 
-0.001077 0.556776 0.004222 0.956432 -16.491532 -12.994114 40.857032 11.684555 -22.191425 -7.850951 11.096977 86.248531 9.903842 10.399735 -44.330589 0.000000 0.000000 0.000000 -41.720569 -4.925530 -41.484121 25.054695 -14.341018 81.576478 -8.227967 -22.529616 -26.016989 0.000000 0.000000 0.000000 7.483329 -1.470214 26.956389 -4.450277 1.327916 -29.232033 0.280638 9.551400 23.495863 7.591952 -4.593644 -14.471467 0.000000 0.000000 0.000000 -15.546406 -20.523785 9.179105 -32.277225 -38.119951 4.061608 130.963919 -35.638085 -63.645637 0.000000 0.000000 0.000000 7.693746 30.970005 11.842050 45.917100 64.081178 21.159258 -64.868711 55.141196 -32.412260 0.000000 0.000000 0.000000 
-0.001250 0.557399 0.004017 0.666639 -16.265599 -13.656838 40.162144 11.881375 -23.583046 -6.198689 9.213687 88.172370 9.400641 9.550789 -40.257668 0.000000 0.000000 0.000000 -41.199032 -4.789116 -40.666421 24.807097 -13.973694 81.791510 -8.256214 -22.512002 -25.946274 0.000000 0.000000 0.000000 7.689439 -1.529176 28.030983 -3.740923 1.143193 -27.976263 0.103075 9.171610 21.958853 5.937065 -3.382824 -13.658869 0.000000 0.000000 0.000000 -16.069380 -19.898992 8.894705 -32.361034 -38.539914 4.329590 132.782454 -35.837335 -66.259465 0.000000 0.000000 0.000000 6.867399 30.994275 11.604932 48.298996 65.358202 23.504919 -58.231239 51.432147 -26.362887 0.000000 0.000000 0.000000 
-0.002244 0.559203 0.003862 0.767653 -18.391936 -14.056178 40.028003 12.187032 -22.557514 -4.650521 8.512990 88.735641 9.169870 9.721670 -37.396335 0.000000 0.000000 0.000000 -39.855060 -3.924709 -41.500722 24.847930 -13.012330 81.715106 -8.187146 -22.485013 -27.038126 0.000000 0.000000 0.000000 7.266492 -1.287985 28.552130 -3.649905 1.035779 -27.470183 0.532734 9.232180 21.530593 4.396246 -2.520441 -11.644275 0.000000 0.000000 0.000000 -15.883318 -20.635106 9.441923 -30.703847 -37.851922 3.800889 132.397254 -32.608540 -60.333037 0.000000 0.000000 0.000000 6.762763 31.482405 11.583465 49.211383 63.354385 22.767467 -58.367349 55.452824 -29.100090 0.000000 0.000000 0.000000 
-0.004031 0.562917 0.003951 0.446226 -19.403187 -13.360269 39.604713 12.348452 -22.697856 -3.546735 7.812249 88.524150 9.077890 10.284934 -35.742756 0.000000 0.000000 0.000000 -38.726088 -3.424562 -42.227736 25.102812 -12.753915 81.099895 -8.252054 -23.095474 -27.346754 0.000000 0.000000 0.000000 7.337341 -1.245526 28.781722 -3.248396 0.922989 -27.984538 -0.419852 7.762074 20.835135 3.593926 -2.305147 -9.711588 0.000000 0.000000 0.000000 -16.674978 -20.552237 9.950288 -29.144689 -36.137838 3.036992 131.914031 -31.604874 -57.433268 0.000000 0.000000 0.000000 8.819259 30.160202 11.343779 52.274118 61.114312 22.916050 -67.279825 65.761719 -42.585163 0.000000 0.000000 0.000000 
